<?xml version="1.0" encoding="UTF-8" standalone="no"?>
<svg width="86.520737mm" height="24.14386mm" viewBox="0 0 86.520734 24.14386" version="1.1" id="svg5"
     xml:space="preserve" sodipodi:docname="title.svg" xmlns:inkscape="http://www.inkscape.org/namespaces/inkscape"
     xmlns:sodipodi="http://sodipodi.sourceforge.net/DTD/sodipodi-0.dtd" xmlns="http://www.w3.org/2000/svg"
     xmlns:svg="http://www.w3.org/2000/svg">
     <sodipodi:namedview id="namedview198" pagecolor="#ffffff" bordercolor="#000000" borderopacity="0.25"
          inkscape:showpageshadow="2" inkscape:pageopacity="0.0" inkscape:pagecheckerboard="0"
          inkscape:deskcolor="#d1d1d1" inkscape:document-units="mm" showgrid="false" />
     <defs id="defs2" />
     <g id="g2603" transform="matrix(0.15833229,0,0,0.15833229,-24.112715,-129.60694)">








          <g aria-label="smart" id="g431"
               style="font-size:53.5092px;line-height:68.9452px;font-family:'AvantGarde LT Medium';-inkscape-font-specification:'AvantGarde LT Medium, ';text-align:center;text-anchor:middle;opacity:1;fill:#ffffff;fill-opacity:1;stroke-width:0"
               transform="matrix(3.7795276,0,0,3.7795276,58.701692,386.93843)" inkscape:export-filename="titleOnly.svg"
               inkscape:export-xdpi="96" inkscape:export-ydpi="96">
               <path d="m 38.942329,132.02255 q -0.267546,-1.81931 -1.284221,-2.67546 -0.963165,-0.90965 -2.514932,-0.90965 -1.551767,0 -2.514932,0.90965 -0.963166,0.85615 -0.963166,2.24739 0,0.90965 0.374564,1.55176 0.374565,0.58861 1.016675,1.01668 0.642111,0.42807 1.444749,0.74913 0.856147,0.26754 1.765803,0.53509 0.856147,0.26755 2.354405,0.80264 1.498258,0.53509 2.943006,1.65878 1.498258,1.07019 2.568442,2.83599 1.070184,1.7123 1.070184,4.33425 0,1.97984 -0.69562,3.69213 -0.64211,1.7123 -1.926331,2.99652 -1.284221,1.28422 -3.157043,2.03335 -1.819313,0.74913 -4.173718,0.74913 -1.391239,0 -3.210552,-0.48159 -1.819312,-0.48158 -3.424589,-1.65878 -1.605276,-1.23071 -2.728969,-3.26406 -1.123693,-2.03335 -1.123693,-5.08338 h 5.564957 q 0.160528,2.51493 1.391239,3.95968 1.284221,1.44475 3.638626,1.44475 1.872822,0 3.050024,-1.07018 1.230712,-1.1237 1.230712,-2.99652 0,-0.96316 -0.428074,-1.65878 -0.374564,-0.69562 -1.070184,-1.17721 -0.695619,-0.53509 -1.658785,-0.90965 -0.963166,-0.42808 -2.03335,-0.80264 -1.230711,-0.42807 -2.67546,-0.96317 -1.444748,-0.5886 -2.728969,-1.55176 -1.230712,-1.01668 -2.086859,-2.51494 -0.856147,-1.55176 -0.856147,-3.90617 0,-1.65878 0.64211,-3.15704 0.69562,-1.55177 1.872822,-2.72897 1.230712,-1.23071 2.943007,-1.92633 1.765803,-0.74913 3.852662,-0.74913 1.284221,0 2.835988,0.42807 1.551766,0.42808 2.889497,1.44475 1.391239,1.01668 2.354404,2.67546 0.963166,1.65879 1.016675,4.12021 z"
                    id="path421" style="fill:#ffffff;fill-opacity:1">
                    <animate attributeName="opacity" dur="1.2s" values="0;1;0" repeatCount="indefinite" begin="0.1" />
               </path>
               <path d="m 89.240966,153.8008 v -16.48084 q 0,-0.96316 -0.160527,-2.46142 -0.160528,-1.49826 -0.856148,-2.8895 -0.64211,-1.44475 -2.086859,-2.46142 -1.391239,-1.07018 -3.906171,-1.07018 -2.67546,0 -4.120209,1.07018 -1.391239,1.01667 -2.086859,2.46142 -0.64211,1.39124 -0.749128,2.8895 -0.107019,1.49826 -0.107019,2.40791 v 16.53435 h -5.564957 v -16.48084 q 0.05351,-1.87282 -0.160527,-3.21055 -0.160528,-1.39124 -1.070184,-2.8895 -1.070184,-1.60527 -2.514933,-2.19387 -1.444748,-0.5886 -2.996515,-0.5886 -2.728969,0 -4.227227,1.07018 -1.498258,1.07018 -2.193877,2.51493 -0.69562,1.44475 -0.802638,2.94301 -0.107019,1.49826 -0.107019,2.30089 v 16.53435 h -5.564956 v -29.6441 h 5.136883 v 3.21055 h 0.107018 q 0.374565,-0.48158 0.963166,-1.12369 0.64211,-0.69562 1.605276,-1.33773 1.016675,-0.64211 2.407914,-1.07019 1.444748,-0.48158 3.531607,-0.48158 1.33773,0 2.728969,0.32106 1.39124,0.32105 2.621951,0.96316 1.284221,0.5886 2.247387,1.55177 1.016675,0.90966 1.605276,2.14037 0.374564,-0.5351 1.016675,-1.39124 0.64211,-0.85615 1.765803,-1.65879 1.123693,-0.80264 2.782479,-1.33773 1.712294,-0.5886 4.227227,-0.5886 3.745644,0 6.367595,1.44475 2.62195,1.39124 4.066699,3.90617 1.658785,2.99652 1.658785,7.22374 v 17.87208 z"
                    id="path423" style="fill:#ffffff;fill-opacity:1">
                    <animate attributeName="opacity" dur="1.3s" values="0;1;0" repeatCount="indefinite" begin="0.1" />
               </path>
               <path d="m 126.37628,139.03226 q 0,-2.35441 -0.80263,-4.28074 -0.80264,-1.97984 -2.19388,-3.37108 -1.39124,-1.39124 -3.26406,-2.14037 -1.87282,-0.80263 -4.01319,-0.80263 -2.56844,0 -4.49478,1.01667 -1.87282,0.96317 -3.15704,2.51493 -1.28422,1.55177 -1.92633,3.42459 -0.5886,1.87282 -0.5886,3.63863 0,2.03335 0.74913,3.90617 0.74913,1.87282 2.08686,3.31757 1.33773,1.44475 3.21055,2.3544 1.87282,0.85615 4.0667,0.85615 2.19388,0 4.0667,-0.80264 1.87282,-0.85614 3.26406,-2.24738 1.39124,-1.44475 2.19388,-3.31757 0.80263,-1.92633 0.80263,-4.0667 z m -0.10701,14.76854 v -4.60179 h -0.10702 q -1.60528,2.72896 -4.33425,4.06669 -2.67546,1.28423 -5.72548,1.28423 -3.74565,0 -6.68865,-1.28423 -2.94301,-1.33773 -4.97636,-3.47809 -1.97984,-2.19388 -3.05002,-4.97636 -1.01668,-2.78248 -1.01668,-5.72548 0,-2.72897 0.96317,-5.51145 0.96316,-2.78248 2.8895,-5.02987 1.97984,-2.30089 4.92284,-3.74564 2.94301,-1.44475 6.9562,-1.44475 3.10353,0 5.77899,1.28422 2.67546,1.23071 4.28074,3.69214 h 0.10702 v -4.17372 h 5.56495 v 29.6441 z"
                    id="path425" style="fill:#ffffff;fill-opacity:1">
                    <animate attributeName="opacity" dur="1.2s" values="0;1;0" repeatCount="indefinite" begin="0.1" />
               </path>
               <path d="m 139.0044,153.8008 v -29.6441 h 5.19039 v 2.67546 h 0.10702 q 0.85615,-1.23071 1.92633,-1.92633 1.12369,-0.69562 2.19388,-1.01668 1.07018,-0.37456 1.97984,-0.42807 0.90965,-0.10702 1.44475,-0.10702 v 5.72549 q -0.64212,0 -1.81932,0.26754 -1.1772,0.26755 -2.19387,0.80264 -1.33773,0.74913 -2.3009,2.51493 -0.96317,1.7123 -0.96317,4.92285 v 16.21329 z"
                    id="path427" style="fill:#ffffff;fill-opacity:1">
                    <animate attributeName="opacity" dur="1.3s" values="0;1;0" repeatCount="indefinite" begin="0.1" />
               </path>
               <path d="m 164.4747,153.8008 h -5.56496 v -24.56073 h -4.01319 v -5.08337 h 4.01319 v -9.95271 h 5.56496 v 9.95271 h 4.86934 v 5.08337 h -4.86934 z"
                    id="path429" style="fill:#ffffff;fill-opacity:1">
                    <animate attributeName="opacity" dur="2.5s" values="0;1;0" repeatCount="indefinite" begin="0.1" />
               </path>
          </g>
     </g>
</svg>