<?xml version="1.0" encoding="UTF-8" standalone="no"?>
<svg
   width="134.74615mm"
   height="88.246002mm"
   viewBox="0 0 134.74615 88.246002"
   version="1.1"
   id="svg5"
   xml:space="preserve"
   sodipodi:docname="title.svg"
   inkscape:version="1.2 (dc2aeda, 2022-05-15)"
   xmlns:inkscape="http://www.inkscape.org/namespaces/inkscape"
   xmlns:sodipodi="http://sodipodi.sourceforge.net/DTD/sodipodi-0.dtd"
   xmlns="http://www.w3.org/2000/svg"
   xmlns:svg="http://www.w3.org/2000/svg"><sodipodi:namedview
   id="namedview298"
   pagecolor="#565656"
   bordercolor="#000000"
   borderopacity="0.25"
   inkscape:showpageshadow="2"
   inkscape:pageopacity="0"
   inkscape:pagecheckerboard="true"
   inkscape:deskcolor="#d1d1d1"
   inkscape:document-units="mm"
   showgrid="false"
   inkscape:zoom="1.0399511"
   inkscape:cx="271.64739"
   inkscape:cy="186.54723"
   inkscape:window-width="1366"
   inkscape:window-height="703"
   inkscape:window-x="0"
   inkscape:window-y="0"
   inkscape:window-maximized="1"
   inkscape:current-layer="svg5" />
        <defs
   id="defs2">
            
        
                
                
                
                
                
                
                
                
            </defs>
        <text
   xml:space="preserve"
   style="font-size:6.38989px;line-height:3.01885px;font-family:Dosis;-inkscape-font-specification:Dosis;text-align:center;text-anchor:middle;opacity:0.890751;fill:#ffffff;stroke:#000000;stroke-width:0"
   x="75.695679"
   y="38.971443"
   id="text575"><tspan
     sodipodi:role="line"
     id="tspan573"
     x="75.695679"
     y="38.971443"
     style="fill:#ffffff;stroke-width:0">helps you to learn and share.</tspan></text><path
   d="M 124.32316,42.611794 H 15.058882 c -1.464574,0 -2.656086,-1.191513 -2.656086,-2.656241 V 2.6560829 C 12.402796,1.1915092 13.594308,-3e-6 15.058882,-3e-6 H 124.32316 c 1.46457,0 2.65609,1.1915122 2.65609,2.6560859 V 39.955553 c 0,1.464728 -1.19152,2.656241 -2.65609,2.656241 z M 15.058882,0.31666158 c -1.289929,0 -2.339422,1.04949292 -2.339422,2.33942132 V 39.955553 c 0,1.290006 1.049493,2.339576 2.339422,2.339576 H 124.32316 c 1.28993,0 2.33942,-1.04957 2.33942,-2.339576 V 2.6560829 c 0,-1.2899284 -1.04949,-2.33942132 -2.33942,-2.33942132 z"
   fill="#3f3d56"
   id="path318"
   style="stroke-width:0.158332" /><rect
   id="uuid-dac6dc9f-03bc-4283-a90c-97bcdcbf45dc"
   y="87.170967"
   width="134.74615"
   height="0.26647323"
   fill="#e6e6e6"
   x="9.9999997e-06"
   style="stroke-width:0.158332" /><rect
   id="uuid-2f9646f7-bb94-4523-8d2e-fd8f0877664c"
   y="73.55439"
   width="134.74615"
   height="0.26647323"
   fill="#e6e6e6"
   x="9.9999997e-06"
   style="stroke-width:0.158332" /><g
   aria-label="smart"
   id="smart_text"
   style="font-size:53.5092px;line-height:68.9452px;font-family:'AvantGarde LT Medium';-inkscape-font-specification:'AvantGarde LT Medium, ';text-align:center;text-anchor:middle;fill:#ffffff;fill-opacity:1;stroke-width:0"
   transform="matrix(0.59842126,0,0,0.59842126,11.612314,-59.108134)">
                    <path
   d="m 38.942329,132.02255 q -0.267546,-1.81931 -1.284221,-2.67546 -0.963165,-0.90965 -2.514932,-0.90965 -1.551767,0 -2.514932,0.90965 -0.963166,0.85615 -0.963166,2.24739 0,0.90965 0.374564,1.55176 0.374565,0.58861 1.016675,1.01668 0.642111,0.42807 1.444749,0.74913 0.856147,0.26754 1.765803,0.53509 0.856147,0.26755 2.354405,0.80264 1.498258,0.53509 2.943006,1.65878 1.498258,1.07019 2.568442,2.83599 1.070184,1.7123 1.070184,4.33425 0,1.97984 -0.69562,3.69213 -0.64211,1.7123 -1.926331,2.99652 -1.284221,1.28422 -3.157043,2.03335 -1.819313,0.74913 -4.173718,0.74913 -1.391239,0 -3.210552,-0.48159 -1.819312,-0.48158 -3.424589,-1.65878 -1.605276,-1.23071 -2.728969,-3.26406 -1.123693,-2.03335 -1.123693,-5.08338 h 5.564957 q 0.160528,2.51493 1.391239,3.95968 1.284221,1.44475 3.638626,1.44475 1.872822,0 3.050024,-1.07018 1.230712,-1.1237 1.230712,-2.99652 0,-0.96316 -0.428074,-1.65878 -0.374564,-0.69562 -1.070184,-1.17721 -0.695619,-0.53509 -1.658785,-0.90965 -0.963166,-0.42808 -2.03335,-0.80264 -1.230711,-0.42807 -2.67546,-0.96317 -1.444748,-0.5886 -2.728969,-1.55176 -1.230712,-1.01668 -2.086859,-2.51494 -0.856147,-1.55176 -0.856147,-3.90617 0,-1.65878 0.64211,-3.15704 0.69562,-1.55177 1.872822,-2.72897 1.230712,-1.23071 2.943007,-1.92633 1.765803,-0.74913 3.852662,-0.74913 1.284221,0 2.835988,0.42807 1.551766,0.42808 2.889497,1.44475 1.391239,1.01668 2.354404,2.67546 0.963166,1.65879 1.016675,4.12021 z"
   id="path398"
   style="fill:#ffffff;fill-opacity:1">
                        <animate
   attributeName="opacity"
   dur="1.2s"
   values="0;1;0"
   repeatCount="indefinite"
   begin="0.1" />
                    </path>
                    <path
   d="m 89.240966,153.8008 v -16.48084 q 0,-0.96316 -0.160527,-2.46142 -0.160528,-1.49826 -0.856148,-2.8895 -0.64211,-1.44475 -2.086859,-2.46142 -1.391239,-1.07018 -3.906171,-1.07018 -2.67546,0 -4.120209,1.07018 -1.391239,1.01667 -2.086859,2.46142 -0.64211,1.39124 -0.749128,2.8895 -0.107019,1.49826 -0.107019,2.40791 v 16.53435 h -5.564957 v -16.48084 q 0.05351,-1.87282 -0.160527,-3.21055 -0.160528,-1.39124 -1.070184,-2.8895 -1.070184,-1.60527 -2.514933,-2.19387 -1.444748,-0.5886 -2.996515,-0.5886 -2.728969,0 -4.227227,1.07018 -1.498258,1.07018 -2.193877,2.51493 -0.69562,1.44475 -0.802638,2.94301 -0.107019,1.49826 -0.107019,2.30089 v 16.53435 h -5.564956 v -29.6441 h 5.136883 v 3.21055 h 0.107018 q 0.374565,-0.48158 0.963166,-1.12369 0.64211,-0.69562 1.605276,-1.33773 1.016675,-0.64211 2.407914,-1.07019 1.444748,-0.48158 3.531607,-0.48158 1.33773,0 2.728969,0.32106 1.39124,0.32105 2.621951,0.96316 1.284221,0.5886 2.247387,1.55177 1.016675,0.90966 1.605276,2.14037 0.374564,-0.5351 1.016675,-1.39124 0.64211,-0.85615 1.765803,-1.65879 1.123693,-0.80264 2.782479,-1.33773 1.712294,-0.5886 4.227227,-0.5886 3.745644,0 6.367595,1.44475 2.62195,1.39124 4.066699,3.90617 1.658785,2.99652 1.658785,7.22374 v 17.87208 z"
   id="path400"
   style="fill:#ffffff;fill-opacity:1">
                        <animate
   attributeName="opacity"
   dur="1.3s"
   values="0;1;0"
   repeatCount="indefinite"
   begin="0.1" />
                    </path>
                    <path
   d="m 126.37628,139.03226 q 0,-2.35441 -0.80263,-4.28074 -0.80264,-1.97984 -2.19388,-3.37108 -1.39124,-1.39124 -3.26406,-2.14037 -1.87282,-0.80263 -4.01319,-0.80263 -2.56844,0 -4.49478,1.01667 -1.87282,0.96317 -3.15704,2.51493 -1.28422,1.55177 -1.92633,3.42459 -0.5886,1.87282 -0.5886,3.63863 0,2.03335 0.74913,3.90617 0.74913,1.87282 2.08686,3.31757 1.33773,1.44475 3.21055,2.3544 1.87282,0.85615 4.0667,0.85615 2.19388,0 4.0667,-0.80264 1.87282,-0.85614 3.26406,-2.24738 1.39124,-1.44475 2.19388,-3.31757 0.80263,-1.92633 0.80263,-4.0667 z m -0.10701,14.76854 v -4.60179 h -0.10702 q -1.60528,2.72896 -4.33425,4.06669 -2.67546,1.28423 -5.72548,1.28423 -3.74565,0 -6.68865,-1.28423 -2.94301,-1.33773 -4.97636,-3.47809 -1.97984,-2.19388 -3.05002,-4.97636 -1.01668,-2.78248 -1.01668,-5.72548 0,-2.72897 0.96317,-5.51145 0.96316,-2.78248 2.8895,-5.02987 1.97984,-2.30089 4.92284,-3.74564 2.94301,-1.44475 6.9562,-1.44475 3.10353,0 5.77899,1.28422 2.67546,1.23071 4.28074,3.69214 h 0.10702 v -4.17372 h 5.56495 v 29.6441 z"
   id="path402"
   style="fill:#ffffff;fill-opacity:1">
                        <animate
   attributeName="opacity"
   dur="1.2s"
   values="0;1;0"
   repeatCount="indefinite"
   begin="0.1" />
                    </path>
                    <path
   d="m 139.0044,153.8008 v -29.6441 h 5.19039 v 2.67546 h 0.10702 q 0.85615,-1.23071 1.92633,-1.92633 1.12369,-0.69562 2.19388,-1.01668 1.07018,-0.37456 1.97984,-0.42807 0.90965,-0.10702 1.44475,-0.10702 v 5.72549 q -0.64212,0 -1.81932,0.26754 -1.1772,0.26755 -2.19387,0.80264 -1.33773,0.74913 -2.3009,2.51493 -0.96317,1.7123 -0.96317,4.92285 v 16.21329 z"
   id="path404-3"
   style="fill:#ffffff;fill-opacity:1">
                        <animate
   attributeName="opacity"
   dur="1.3s"
   values="0;1;0"
   repeatCount="indefinite"
   begin="0.1" />
                    </path>
                    <path
   d="m 164.4747,153.8008 h -5.56496 v -24.56073 h -4.01319 v -5.08337 h 4.01319 v -9.95271 h 5.56496 v 9.95271 h 4.86934 v 5.08337 h -4.86934 z"
   id="path406-6"
   style="fill:#ffffff;fill-opacity:1">
                        <animate
   attributeName="opacity"
   dur="2.5s"
   values="0;1;0"
   repeatCount="indefinite"
   begin="0.1" />
                    </path>
                </g><g
   id="g392"
   transform="matrix(0.15833229,0,0,0.15833229,1e-5,-3e-6)">
                    <path
   d="m 812.65719,351.00821 -48.32166,-14.79238 c -1.06882,-0.32716 -2.19038,-0.4466 -3.30415,-0.3518 l -244.90187,20.84269 c -3.49184,0.29715 -4.36942,5.00693 -1.21895,6.54176 l 7.84468,3.82176 h -0.20917 v 182.95168 h 7.39199 V 370.56958 l 24.58572,11.97763 c 1.88116,0.91644 3.98046,1.29052 6.06233,1.08022 l 2.61589,-0.26422 v 166.65871 h 7.39199 v -167.4054 l 189.41967,-19.13326 v 186.53866 h 7.39199 V 362.73657 l 31.41595,-3.17331 v 190.45866 h 7.39199 V 358.81657 l 5.7314,-0.57891 c 4.0236,-0.40645 4.57916,-6.04575 0.71223,-7.22945 z"
   fill="#3f3d56"
   id="path360" />
                    <path
   d="m 587.22595,355.98226 c 4.61999,0 72.99587,-8.31599 72.99587,-8.31599 l 10.16398,13.85998 -71.14788,13.85998 -12.01198,-19.40397 z"
   fill="#ffffff"
   id="path362" />
                    <g
   id="g368">
                        <polygon
   points="650.39,542.89512 644.81757,497.06436 662.35045,497.09569 662.26939,542.91667 "
   fill="#a0616a"
   id="polygon364" />
                        <path
   d="m 621.56955,542.57731 v 0 c -0.37095,0.62232 -0.56957,2.63259 -0.57082,3.35703 v 0 c -0.004,2.22674 1.79818,4.03501 4.02499,4.03884 l 36.78911,0.0632 c 1.51907,0.003 2.7527,-1.22673 2.75531,-2.74587 l 0.003,-1.53165 c 0,0 1.82782,-4.60028 -1.90933,-10.28065 0,0 -4.66452,4.43479 -11.61116,-2.53575 l -2.04565,-3.72093 -14.87251,10.83785 -8.23501,0.9993 c -1.80165,0.21861 -3.39821,-0.0402 -4.32743,1.51866 h -1.4e-4 z"
   fill="#2f2e41"
   id="path366" />
                    </g>
                    <g
   id="g374">
                        <polygon
   points="716.65452,528.67376 684.92538,495.88695 698.75852,485.45309 726.02735,521.60456 "
   fill="#a0616a"
   id="polygon370" />
                        <path
   d="m 693.75683,545.61506 v 0 c 0.0789,0.71161 1.12159,2.41402 1.55275,2.98556 v 0 c 1.32526,1.75677 3.82374,2.10662 5.58057,0.78132 l 29.02444,-21.89533 c 1.19846,-0.90409 1.43715,-2.60858 0.53302,-3.80709 l -0.91157,-1.20838 c 0,0 -1.30394,-4.71495 -7.63691,-6.96136 0,0 -1.02986,6.27668 -10.66123,4.92822 l -3.83137,-1.71153 -5.2534,17.41094 -5.89241,5.69963 c -1.28915,1.24695 -2.70151,1.99536 -2.50376,3.77794 l -1.1e-4,9e-5 z"
   fill="#2f2e41"
   id="path372" />
                    </g>
                    <path
   d="m 701.20012,284.7398 c 0,10.95483 -8.88064,19.83547 -19.83547,19.83547 -10.95483,0 -19.83547,-8.88064 -19.83547,-19.83547 0,-10.95483 8.88064,-19.83547 19.83547,-19.83547 10.95483,0 19.83547,8.88064 19.83547,19.83547 z"
   fill="#a0616a"
   id="path376" />
                    <path
   d="m 699.33129,399.1067 c 0,0 -73.0319,-4.13388 -77.16578,4.13388 -4.13388,8.26776 22.34833,121.83338 22.34833,121.83338 l 23.62655,-4.95175 -11.52587,-79.6767 c 0,0 60.94342,16.14005 69.21118,-3.1514 8.26776,-19.29144 5.88766,-26.47475 5.88766,-26.47475 z"
   fill="#2f2e41"
   id="path378" />
                    <path
   d="m 718.04278,385.22869 c 0,0 -71.52378,15.33281 -73.3233,24.3996 -1.79952,9.06679 53.78128,111.58133 53.78128,111.58133 l 21.47498,-11.02537 -32.19248,-73.78934 c 0,0 63.04198,-0.55653 65.91197,-21.34785 2.86999,-20.79132 -1.32556,-27.08911 -1.32556,-27.08911 l -34.3269,-2.72925 z"
   fill="#2f2e41"
   id="path380" />
                    <path
   d="m 726.20152,307.47234 h -34.36221 l -23.51213,38.58289 c 0,0 -5.51184,24.93349 0,27.62431 5.51184,2.69082 5.51184,31.62799 5.51184,31.62799 l 57.87433,5.51184 c 0,0 8.26776,-86.8115 5.51184,-95.07926 -2.75592,-8.26776 -11.02368,-8.26776 -11.02368,-8.26776 z"
   fill="#6c63ff"
   id="path382" />
                    <path
   d="m 671.77208,332.96463 -3.44492,40.71481 -38.74748,-16.44473 -9.24771,-4.6509 c -1.81128,-2.36188 -4.16183,-4.25556 -6.85504,-5.52279 -6.69735,-3.264 -13.80747,-2.4555 -15.8841,1.80514 -2.07668,4.26063 1.66736,10.35956 8.36279,13.62153 2.6583,1.34088 5.59915,2.02531 8.57642,1.99632 l 27.05797,15.36813 0.0319,-0.0601 0.11996,0.21419 42.43185,17.72245 9.76312,-53.44911 -22.16474,-11.31492 z"
   fill="#a0616a"
   id="path384" />
                    <path
   d="m 667.63821,287.49192 c 0,0 -20.6694,2.75592 -12.40164,-15.15756 0,0 -1.2606,-9.71082 4.88154,-10.36725 6.14214,-0.65643 14.4099,-11.68011 14.4099,-11.68011 0,0 18.95509,-9.64572 28.76899,0 9.8139,9.64572 38.75106,66.14209 38.75106,66.14209 l -19.29144,20.6694 c 0,0 -11.59783,-30.48873 -25.09036,-26.95703 -13.49253,3.5317 -25.89417,14.06171 -25.89417,14.06171 0,0 -13.6928,-6.8525 -7.53538,-12.82513 6.15742,-5.97263 3.4015,-23.88612 3.4015,-23.88612 z"
   fill="#2f2e41"
   id="path386" />
                    <path
   d="m 695.19741,317.80704 c 0,0 -9.64572,-12.40164 -16.53552,-2.75592 -6.8898,9.64572 -12.40164,22.04736 -12.40164,22.04736 l 27.55921,9.64572 1.37796,-28.93717 z"
   fill="#6c63ff"
   id="path388" />
                    <path
   d="m 799.83575,547.27902 -32.01899,-101.77021 0.005,-3.4e-4 h 0.0739 l -0.12937,-0.16637 -0.003,-0.004 -2.28061,-7.24885 0.001,-9e-4 c 3.47424,-2.99375 5.83968,-7.27186 6.31092,-12.19685 l -14.63616,-80.49862 c 1.00718,-10.5706 -7.0963,-19.81058 -17.71303,-20.18945 l -33.02369,-0.0831 c -9.3878,-0.33263 -17.51903,6.44949 -18.88653,15.74497 l -0.72994,4.93412 -10.11779,68.82863 c -0.36962,2.47625 -0.22175,4.91573 0.36037,7.19798 l -7.28111,0.95175 -2.20837,0.29563 -8.7318,1.1365 -0.0277,0.009 -1.09031,0.13862 h -1.18275 v 29.56795 h 0.0739 v 94.50658 c 0,0.60976 0.49894,1.10875 1.10881,1.10875 0.61906,0 1.118,-0.499 1.118,-1.10875 v -94.50658 h 12.95448 l 12.92673,94.39559 c 0.0832,0.55449 0.55438,0.96099 1.10881,0.96099 0.0462,0 0.10163,0 0.14781,-0.009 0.60987,-0.0831 1.03487,-0.64675 0.95175,-1.25662 l -12.88054,-94.09072 h 62.15733 c 6.17174,0 11.89073,-1.95853 16.54743,-5.31209 l 24.64454,99.53455 c 0.12825,0.50373 0.58088,0.83839 1.07785,0.83839 0.0907,0 0.18312,-0.0108 0.27527,-0.0342 0.59555,-0.15159 0.95558,-0.75752 0.80421,-1.35306 l -24.8828,-100.49674 c 0.33093,-0.27589 0.66192,-0.57005 0.97453,-0.87347 l 9.89305,-0.58179 32.1857,102.30011 c 0.14939,0.47497 0.58821,0.77929 1.06127,0.77929 0.11059,0 0.22305,-0.0168 0.3342,-0.0517 0.58635,-0.18475 0.9121,-0.80974 0.72763,-1.39604 z M 763.36776,439.66885 c 0.0831,-0.0463 0.15706,-0.10174 0.231,-0.14798 l 5.6e-4,-4.5e-4 0.23777,0.75571 z"
   fill="#e6e6e6"
   id="path390" />
                </g><g
   id="g460"
   transform="matrix(0.15833229,0,0,0.15833229,1e-5,-3e-6)">
                    <g
   id="g400">
                        <polygon
   points="193.11428,361.07087 201.87509,366.35537 171.56525,401.18319 171.56525,374.77477 "
   fill="#ffb6b6"
   id="polygon394" />
                        <path
   d="m 142.09734,321.73254 c 0,0 -14.31298,3.36776 -7.57746,22.73238 6.73552,19.36462 28.62597,59.77775 35.36149,57.25193 6.73552,-2.52582 7.57746,-27.78403 7.57746,-27.78403 0,0 -0.84194,0.84194 -4.2097,-2.52582 -3.36776,-3.36776 -3.36776,-1.82973 -3.36776,-5.54554 0,-3.71581 -2.75454,-6.47034 -2.75454,-6.47034 l -3.13904,-6.50681 c 0,0 0,-30.30985 -12.6291,-31.99373 -12.6291,-1.68388 -9.26134,0.84194 -9.26134,0.84194 z"
   fill="#e6e6e6"
   id="path396" />
                        <ellipse
   cx="202.71703"
   cy="359.19888"
   rx="14.31298"
   ry="8.8403702"
   transform="rotate(-45,202.71704,359.19888)"
   fill="#ffb6b6"
   id="ellipse398" />
                    </g>
                    <g
   id="g414">
                        <polygon
   points="101.05215,457.62779 186.74142,452.55742 163.92475,423.14927 86.34807,433.29001 "
   fill="#e6e6e6"
   id="polygon402" />
                        <path
   d="m 111.95221,547.11985 c -0.49911,0 -0.93386,-0.36839 -1.00343,-0.87642 L 85.3434,359.23635 c -0.07601,-0.55507 0.31219,-1.06656 0.86701,-1.14232 0.55457,-0.0802 1.06607,0.31195 1.14232,0.86701 l 25.60538,187.00708 c 0.076,0.55507 -0.31219,1.06656 -0.86701,1.14232 -0.0468,0.006 -0.0931,0.009 -0.13889,0.009 z"
   fill="#e6e6e6"
   id="path404" />
                        <path
   d="m 86.34807,547.35752 c -0.56002,0 -1.01407,-0.45406 -1.01407,-1.01407 V 359.13484 c 0,-0.56002 0.45406,-1.01407 1.01407,-1.01407 0.56002,0 1.01407,0.45406 1.01407,1.01407 v 187.20861 c 0,0.56002 -0.45406,1.01407 -1.01407,1.01407 z"
   fill="#e6e6e6"
   id="path406" />
                        <path
   d="m 214.88174,546.61331 c -0.43103,0 -0.83087,-0.27729 -0.96703,-0.71005 L 153.32377,353.31877 c -0.1681,-0.53427 0.12874,-1.1037 0.66301,-1.27205 0.53402,-0.16736 1.1037,0.12924 1.27155,0.66301 l 60.59094,192.58449 c 0.1681,0.53427 -0.12874,1.1037 -0.66301,1.27205 -0.10126,0.0317 -0.20376,0.047 -0.30452,0.047 z"
   fill="#e6e6e6"
   id="path408" />
                        <path
   d="m 196.37439,546.85049 c -0.45282,0 -0.86528,-0.30501 -0.98214,-0.76402 L 153.30817,376.11712 c -0.1379,-0.54269 0.19014,-1.09478 0.73283,-1.23293 0.54442,-0.13716 1.09478,0.19014 1.23293,0.73283 l 42.08408,169.96935 c 0.1379,0.54269 -0.19014,1.09478 -0.73283,1.23293 -0.0839,0.0213 -0.1681,0.0312 -0.2508,0.0312 z"
   fill="#e6e6e6"
   id="path410" />
                        <polygon
   points="156.57271,361.03722 169.50216,434.81112 87.36214,434.81112 86.34807,362.11717 "
   fill="#e6e6e6"
   id="polygon412" />
                    </g>
                    <g
   id="g422">
                        <polygon
   points="176.56797,501.75497 197.11665,506.27891 205.68358,484.11776 194.26591,470.59655 "
   fill="#ffb6b6"
   id="polygon416" />
                        <path
   d="m 182.92462,495.87253 c 0,0 -0.68769,-5.08127 -4.73068,-3.46879 -4.04299,1.61248 -15.71126,7.60503 -15.71126,7.60503 0,0 30.43363,49.4508 36.20933,47.14726 5.7757,-2.30353 -1.13827,-16.28208 -1.13827,-16.28208 l 1.52597,-24.70853 -16.1551,-10.29289 z"
   fill="#2f2e41"
   id="path418" />
                        <path
   d="m 115.9972,410.13626 c 0,0 -6.31455,29.04694 13.05007,39.15022 19.36462,10.10328 85.45693,-14.73395 85.45693,-14.73395 l -30.30985,45.41505 21.0485,8.46912 c 0,0 47.99059,-63.14551 44.62283,-73.24879 -3.36776,-10.10328 -26.10015,-10.94522 -26.10015,-10.94522 l -51.35835,2.52582 -13.47104,-4.2097 -42.93895,7.57746 z"
   fill="#2f2e41"
   id="path420" />
                    </g>
                    <g
   id="g430">
                        <polygon
   points="140.26086,507.00768 157.75463,518.69879 173.79831,501.17426 168.08352,484.4253 "
   fill="#ffb6b6"
   id="polygon424" />
                        <path
   d="m 148.32224,503.84158 c 0,0 1.20844,-4.98316 -3.14413,-4.9524 -4.35257,0.0308 -17.40151,1.36661 -17.40151,1.36661 0,0 10.35295,57.13496 16.57091,57.09102 6.21796,-0.0439 4.86453,-15.58006 4.86453,-15.58006 l 10.41237,-22.45936 -11.30217,-15.46582 z"
   fill="#2f2e41"
   id="path426" />
                        <path
   d="m 117.181,399.62925 c 0,0 -16.45134,24.75786 -2.09067,41.21496 14.36067,16.4571 84.95984,17.37244 84.95984,17.37244 l -44.7577,31.27238 16.52375,15.54771 c 0,0 67.67815,-41.35361 68.21767,-51.98973 0.53953,-10.63612 -20.32807,-19.69226 -20.32807,-19.69226 l -48.75657,-16.33576 -11.01569,-8.82298 -42.75257,-8.56676 z"
   fill="#2f2e41"
   id="path428" />
                    </g>
                    <path
   d="m 159.4433,342.28438 c 0,0 -15.99686,-5.89358 -23.57432,-5.89358 -0.72406,0 -1.43974,0.0842 -2.15536,0.23572 -4.84958,1.02719 -9.31186,5.19481 -11.45037,7.46801 -0.83356,0.89245 -1.31342,1.49025 -1.31342,1.49025 0,0 0.0505,-0.58094 0.15154,-1.59971 0.49672,-5.35473 2.33214,-22.92601 5.62415,-34.17432 1.17869,-4.01607 2.53425,-7.22386 4.09182,-8.78143 3.62876,-3.63719 5.30421,-7.99843 6.07878,-11.24831 0.65674,-2.78687 0.65674,-4.74855 0.65674,-4.74855 l -6.13773,-2.6437 -1.13665,-7.42592 c -0.20206,0.8756 -1.1366,2.58476 -4.27702,5.85992 -0.26943,0.2778 -0.56414,0.51357 -0.87565,0.71563 -4.52964,2.84576 -13.7657,-2.10485 -18.7416,-5.22004 2.07119,-7.19858 5.82626,-13.78256 12.64596,-14.86021 15.99686,-2.52582 15.99686,-11.78716 26.10015,-1.68388 0.83351,0.83351 1.67545,1.63337 2.51739,2.40794 3.23307,6.17986 4.41176,14.46453 4.83273,20.22342 0.30314,4.03287 0.22734,6.83655 0.22734,6.83655 0,0 4.2097,25.25821 10.94522,30.30985 6.73552,5.05164 -4.2097,22.73238 -4.2097,22.73238 z"
   fill="#2f2e41"
   id="path432" />
                    <polygon
   points="116.91538,318.55786 142.6045,325.44557 142.6045,301.87125 128.29151,301.87125 "
   fill="#ffb6b6"
   id="polygon434" />
                    <polygon
   points="116.91538,318.55786 142.6045,325.44557 142.6045,301.87125 128.29151,301.87125 "
   opacity="0.1"
   id="polygon436" />
                    <path
   d="m 144.20219,317.94381 -24.41626,-10.10328 c 0,0 -32.83567,14.31298 -30.30985,42.09701 2.52582,27.78403 26.10015,75.77462 26.10015,75.77462 l 47.14865,-20.20656 -5.05164,-53.88417 -13.47104,-33.67761 z"
   fill="#e6e6e6"
   id="path438" />
                    <circle
   cx="133.73351"
   cy="287.78009"
   r="21.54104"
   fill="#ffb6b6"
   id="circle440" />
                    <path
   d="m 162.81106,279.9808 c -4.2097,4.2097 -7.57746,8.4194 -7.57746,8.4194 l -1.68388,-6.73552 c 0,0 -0.38731,0.28623 -1.06928,0.74091 -2.66894,1.81857 -9.83386,6.3903 -15.58432,7.3754 -2.55948,0.43777 -4.83273,0.15992 -6.31455,-1.38079 -3.14042,-3.27516 -4.07496,-4.98432 -4.27702,-5.85992 l -1.13665,7.42592 -6.13773,2.6437 c 0,0 0,9.24449 6.73552,15.99686 0.32837,0.32837 0.64831,0.73248 0.95982,1.20397 3.21622,4.84958 5.52313,16.72092 6.98809,26.81577 1.29657,8.97511 1.9196,16.53572 1.9196,16.53572 0,0 -6.37344,-7.98158 -13.36996,-9.06771 -0.38731,-0.0589 -0.77462,-0.10103 -1.16188,-0.10946 -0.12631,-0.0168 -0.261,-0.0168 -0.38731,-0.0168 -7.57746,0 -23.57432,5.89358 -23.57432,5.89358 0,0 -10.94522,-17.68074 -4.2097,-22.73238 6.73552,-5.05164 10.94522,-30.30985 10.94522,-30.30985 0,0 -0.27785,-10.81053 2.50897,-20.50127 2.07119,-7.19858 5.82626,-13.78256 12.64596,-14.86021 15.99686,-2.52582 15.99686,-11.78716 26.10015,-1.68388 0.83351,0.83351 1.67545,1.63337 2.51739,2.40794 9.41288,8.65517 19.02788,13.9341 15.16335,17.79863 z"
   fill="#2f2e41"
   id="path442" />
                    <rect
   x="60.3339"
   y="393"
   width="8"
   height="158"
   fill="#3f3d56"
   id="rect444" />
                    <rect
   x="254.33389"
   y="393"
   width="8"
   height="158"
   fill="#3f3d56"
   id="rect446" />
                    <rect
   x="158.33389"
   y="326"
   width="53"
   height="53"
   fill="#6c63ff"
   id="rect448" />
                    <g
   id="g456">
                        <polygon
   points="149.33339,368.64833 158.09421,373.93283 127.78436,408.76065 127.78436,382.35224 "
   fill="#ffb6b6"
   id="polygon450" />
                        <path
   d="m 98.31645,329.31001 c 0,0 -14.31298,3.36776 -7.57746,22.73238 6.73552,19.36462 28.62597,59.77775 35.36149,57.25193 6.73552,-2.52582 7.57746,-27.78403 7.57746,-27.78403 0,0 -0.84194,0.84194 -4.2097,-2.52582 -3.36776,-3.36776 -3.36776,-1.82973 -3.36776,-5.54554 0,-3.71581 -2.75454,-6.47034 -2.75454,-6.47034 l -3.13904,-6.50681 c 0,0 0,-30.30985 -12.6291,-31.99373 -12.6291,-1.68388 -9.26134,0.84194 -9.26134,0.84194 z"
   fill="#e6e6e6"
   id="path452" />
                        <ellipse
   cx="158.93616"
   cy="366.77634"
   rx="14.31298"
   ry="8.8403702"
   transform="rotate(-45,158.93615,366.77634)"
   fill="#ffb6b6"
   id="ellipse454" />
                    </g>
                    <rect
   x="36.3339"
   y="387"
   width="242"
   height="18"
   fill="#3f3d56"
   id="rect458" />
                </g><rect
   x="76.527374"
   y="38.474743"
   width="7.2832851"
   height="3.9583073"
   rx="0.81223196"
   ry="0.81223196"
   fill="#3f3d56"
   id="rect462"
   style="stroke-width:0.158332" /><rect
   x="88.402298"
   y="40.808582"
   width="7.2832851"
   height="1.6244655"
   rx="0.81223196"
   ry="0.81223196"
   fill="#6c63ff"
   id="rect464"
   style="stroke-width:0.158332" />
    </svg>
